<svg width="107" height="81" viewBox="0 0 107 81" fill="none" xmlns="http://www.w3.org/2000/svg">
<path fill-rule="evenodd" clip-rule="evenodd" d="M6.6875 80.2467H100.312C104.007 80.2467 107 77.254 107 73.5592V6.68416C107 2.98931 104.007 0 100.312 0H6.6875C2.99266 0 0 2.98931 0 6.68416V73.5592C0 77.254 2.99266 80.2467 6.6875 80.2467ZM100.312 73.5593H6.6875V6.68426H100.312V73.5593ZM86.3511 60.1599L69.4819 40.405C68.9134 39.7396 68.0541 39.3183 67.0911 39.3183C66.1314 39.3183 65.2788 39.7396 64.707 40.405L62.4567 43.0466C62.3664 43.167 62.2661 43.284 62.1591 43.391C61.6174 43.936 60.8483 44.2737 60.009 44.2737C59.2099 44.2737 58.4876 43.9728 57.9526 43.4846C57.7721 43.3208 57.6116 43.1335 57.4778 42.9295L49.1853 33.2226C48.4464 32.3499 47.3162 31.8015 46.0623 31.8015C44.805 31.8015 43.6782 32.3499 42.9359 33.2226L20.8537 59.0765L20.4859 59.5079C20.2084 59.9225 20.0445 60.414 20.0445 60.9423C20.0445 62.3801 21.255 63.5504 22.7429 63.5504V63.5538H28.9456H30.9719H31.4334H49.2957H54.0271H55.5786H55.9263H69.3715H78.2392H78.5969H81.506H84.8899V63.5504C86.0234 63.5504 86.9429 62.6577 86.9429 61.5609C86.9429 61.1396 86.8159 60.7517 86.5818 60.4341L86.3511 60.1599ZM74.1544 26.1073C74.1544 22.7636 76.7892 20.0552 80.0394 20.0552C83.2928 20.0552 85.9277 22.7636 85.9277 26.1073C85.9277 29.4477 83.2928 32.1629 80.0394 32.1629C76.7892 32.1629 74.1544 29.4477 74.1544 26.1073Z" fill="#A5AEA8"/>
</svg>
