<svg width="184" height="122" viewBox="0 0 184 122" fill="none" xmlns="http://www.w3.org/2000/svg">
<path d="M180.9 84.2505C180.028 28.8013 172.836 13.0013 117.804 3C117.804 3 110.058 12.9401 92.002 12.9401C73.9463 12.9401 66.1984 3 66.1984 3C11.7671 12.8923 4.13818 28.4579 3.13508 82.4491C3.05283 86.8579 3.01471 87.0896 3 86.5778C3.00334 87.5367 3.00735 89.3104 3.00735 92.4034C3.00735 92.4034 16.1091 119 92.002 119C167.894 119 180.997 92.4034 180.997 92.4034C180.997 90.4162 180.998 89.0344 181 88.0943C180.985 88.4108 180.956 87.7973 180.9 84.2505Z" stroke="#B9BED1" stroke-width="5" stroke-linecap="round" stroke-linejoin="round" stroke-dasharray="20 15"/>
</svg>
