<svg width="32" height="32" viewBox="0 0 32 32" fill="none" xmlns="http://www.w3.org/2000/svg">
<path d="M3.99996 5.0001V1.00001C3.99996 0.44721 4.44717 0 5.0001 0C5.55276 0 5.99997 0.44721 5.99997 1.00001V5.0001C5.99997 5.55276 5.55276 5.99997 5.0001 5.99997C4.44717 6.00004 3.99996 5.55276 3.99996 5.0001ZM21.0001 6.00004C21.5527 6.00004 22.0001 5.55283 22.0001 5.00016V1.00001C22.0001 0.44721 21.5527 0 21.0001 0C20.4473 0 19.9998 0.44721 19.9998 1.00001V5.0001C19.9998 5.55276 20.4473 6.00004 21.0001 6.00004ZM31.9999 23.9998C31.9999 28.4182 28.418 32 23.9999 32C19.5821 32 16 28.4182 16 23.9998C16 19.582 19.5821 16 23.9999 16C28.418 16 31.9999 19.5819 31.9999 23.9998ZM30.0001 23.9998C30.0001 20.6916 27.3087 17.9998 24 17.9998C20.6915 17.9998 18 20.6915 18 23.9998C18 27.3086 20.6915 29.9999 24 29.9999C27.3087 29.9999 30.0001 27.3086 30.0001 23.9998ZM8.00005 12H3.99996V16H8.00005V12ZM3.99996 22H8.00005V17.9998H3.99996V22ZM9.99993 16H14.0001V12H9.99993V16ZM9.99993 22H14.0001V17.9998H9.99993V22ZM2.00008 23.8009V9.99993H24V14H26V6.19934C26 4.98447 25.0311 3.99996 23.834 3.99996H22.9999V5.00016C22.9999 6.1016 22.1033 7.00011 21.0002 7.00011C19.8968 7.00011 19.0002 6.1016 19.0002 5.00016V3.99996H6.99991V5.00016C6.99991 6.1016 6.10345 7.00011 5.00016 7.00011C3.89661 7.00011 3.00008 6.1016 3.00008 5.00016V3.99996H2.167C0.969867 3.99996 0 4.98447 0 6.19934V23.801C0 25.0118 0.969867 26.0002 2.167 26.0002H14.0001V23.9998H2.167C2.07638 23.9998 2.00008 23.9062 2.00008 23.8009ZM19.9998 16V12H16V16H19.9998ZM27 23.9998H23.9999V20.9997C23.9999 20.4472 23.5527 20 22.9999 20C22.4471 20 22.0001 20.4472 22.0001 20.9997V25.0001C22.0001 25.5526 22.4471 26.0001 22.9999 26.0001H27C27.5528 26.0001 28 25.5526 28 25.0001C28 24.4473 27.5528 23.9998 27 23.9998Z" fill="white"/>
</svg>
