<svg width="32" height="19" viewBox="0 0 32 19" fill="none" xmlns="http://www.w3.org/2000/svg">
<path d="M16 0C9.88606 0 4.34162 3.33185 0.250384 8.74365C-0.0834612 9.18703 -0.0834612 9.80645 0.250384 10.2498C4.34162 15.6682 9.88606 19 16 19C22.1139 19 27.6584 15.6682 31.7496 10.2563C32.0835 9.81297 32.0835 9.19355 31.7496 8.75017C27.6584 3.33185 22.1139 0 16 0ZM16.4386 16.1898C12.3801 16.4441 9.02854 13.1122 9.28383 9.06314C9.4933 5.72478 12.2099 3.01887 15.5614 2.81023C19.6199 2.55594 22.9715 5.88778 22.7162 9.93686C22.5002 13.2687 19.7836 15.9746 16.4386 16.1898ZM16.2357 13.0992C14.0493 13.2361 12.2426 11.443 12.3866 9.26527C12.4979 7.46568 13.9642 6.01167 15.7709 5.8943C17.9572 5.75738 19.7639 7.55045 19.6199 9.72821C19.5021 11.5343 18.0358 12.9883 16.2357 13.0992Z" fill="#A1A7DF"/>
</svg>
