<svg width="32" height="32" viewBox="0 0 32 32" fill="none" xmlns="http://www.w3.org/2000/svg">
<path d="M30.1492 28.801V14.3408C30.1492 13.5861 29.5375 12.9743 28.7828 12.9743H22.2938V9.03994C22.2938 8.66834 22.0924 8.32586 21.7681 8.1449L16.4993 5.20657C16.4703 5.19033 16.4403 5.17609 16.4101 5.16297V3.48617H19.2473C19.4736 3.48617 19.6573 3.30257 19.6573 3.07617V1.00528C19.6573 0.778882 19.4736 0.595281 19.2473 0.595281H16.4101V0.410001C16.4101 0.1836 16.2267 0 16.0002 0C15.7737 0 15.5903 0.1836 15.5903 0.410001V5.16297C15.5601 5.17617 15.5301 5.19041 15.501 5.20657L10.2322 8.14498C9.90757 8.32586 9.70637 8.66842 9.70637 9.04002V12.9743H3.21725C2.46253 12.9743 1.85085 13.5861 1.85085 14.3408V28.8009C1.27029 29.0636 0.866211 29.6475 0.866211 30.326C0.866211 31.2506 1.61565 32 2.54013 32H29.4598C30.3843 32 31.1337 31.2506 31.1337 30.326C31.1336 29.6475 30.7296 29.0636 30.1492 28.801ZM24.8673 17.7373C24.8673 17.2977 25.2237 16.9413 25.6636 16.9413H27.152C27.5915 16.9413 27.948 17.2977 27.948 17.7373V19.2259C27.948 19.6655 27.5915 20.0219 27.152 20.0219H25.6636C25.2237 20.0219 24.8673 19.6655 24.8673 19.2259V17.7373H24.8673ZM24.8673 22.5201C24.8673 22.0805 25.2237 21.7241 25.6636 21.7241H27.152C27.5915 21.7241 27.948 22.0805 27.948 22.5201V24.0085C27.948 24.4481 27.5915 24.8045 27.152 24.8045H25.6636C25.2237 24.8045 24.8673 24.4481 24.8673 24.0085V22.5201H24.8673ZM20.0848 17.7373C20.0848 17.2977 20.441 16.9413 20.8806 16.9413H22.3692C22.8085 16.9413 23.1651 17.2977 23.1651 17.7373V19.2259C23.1651 19.6655 22.8085 20.0219 22.3692 20.0219H20.8806C20.441 20.0219 20.0848 19.6655 20.0848 19.2259V17.7373ZM20.0848 22.5201C20.0848 22.0805 20.441 21.7241 20.8806 21.7241H22.3692C22.8085 21.7241 23.1651 22.0805 23.1651 22.5201V24.0085C23.1651 24.4481 22.8085 24.8045 22.3692 24.8045H20.8806C20.441 24.8045 20.0848 24.4481 20.0848 24.0085V22.5201ZM16 9.04314C17.2453 9.04314 18.2548 10.0526 18.2548 11.2979C18.2548 12.5432 17.2453 13.5525 16 13.5525C14.7547 13.5525 13.7452 12.5431 13.7452 11.2978C13.7452 10.0525 14.7547 9.04314 16 9.04314ZM13.7421 21.9869C13.7421 21.5473 14.0984 21.1909 14.5384 21.1909H17.4617C17.9013 21.1909 18.2577 21.5473 18.2577 21.9869V28.2582C18.2577 28.4017 18.2193 28.5362 18.1527 28.6525H13.8476C13.7809 28.5362 13.7424 28.4017 13.7424 28.2582L13.7421 21.9869ZM8.83469 17.7373C8.83469 17.2977 9.19101 16.9413 9.63061 16.9413H11.1191C11.5587 16.9413 11.915 17.2977 11.915 17.7373V19.2259C11.915 19.6655 11.5587 20.0219 11.1191 20.0219H9.63061C9.19101 20.0219 8.83469 19.6655 8.83469 19.2259V17.7373ZM8.83469 22.5201C8.83469 22.0805 9.19101 21.7241 9.63061 21.7241H11.1191C11.5587 21.7241 11.915 22.0805 11.915 22.5201V24.0085C11.915 24.4481 11.5587 24.8045 11.1191 24.8045H9.63061C9.19101 24.8045 8.83469 24.4481 8.83469 24.0085V22.5201ZM4.05173 17.7373C4.05173 17.2977 4.40805 16.9413 4.84789 16.9413H6.33621C6.77597 16.9413 7.13237 17.2977 7.13237 17.7373V19.2259C7.13237 19.6655 6.77597 20.0219 6.33621 20.0219H4.84797C4.40813 20.0219 4.05181 19.6655 4.05181 19.2259V17.7373H4.05173ZM4.05173 22.5201C4.05173 22.0805 4.40805 21.7241 4.84789 21.7241H6.33621C6.77597 21.7241 7.13237 22.0805 7.13237 22.5201V24.0085C7.13237 24.4481 6.77597 24.8045 6.33621 24.8045H4.84797C4.40813 24.8045 4.05181 24.4481 4.05181 24.0085V22.5201H4.05173Z" fill="white"/>
</svg>
