<svg width="178" height="63" viewBox="0 0 178 63" fill="none" xmlns="http://www.w3.org/2000/svg">
<path d="M30.1007 63H42.7327V53.7561C47.3307 51.2856 53.747 49.7372 61.0833 53.7561C61.1827 53.8092 61.0833 63 61.0833 63H74.312V40.1028C74.312 40.1028 77.3287 43.2196 79.2415 50.0578C80.1532 21.6731 62.2734 -3.5002 17.7471 0.400725L30.1007 63Z" fill="#FEE74E"/>
<path d="M17.7354 0.331966C20.0693 0.277572 22.4036 0.419844 24.7136 0.75728C34.3903 2.1462 43.4106 6.68344 48.4329 11.7224C46.1986 21.38 39.958 37.4905 28.1182 43.827C27.4552 37.2197 26.1093 33.224 26.1093 33.224C22.6417 33.2074 18.9918 32.9267 15.8326 33.4417C14.2082 33.7075 12.7181 34.1843 11.4501 35.0167C7.72226 37.4656 5.88737 40.9893 5.59731 43.822C5.54095 48.5171 7.9278 53.0011 14.0275 52.7204C17.2713 52.5709 19.867 51.7784 20.9444 50.74C20.9444 52.1522 21.0521 55.7773 20.9444 55.9036C18.836 58.3574 2.93696 61.4709 0.200377 48.0818C-0.250472 45.8722 0.200377 19.8997 0.200377 19.8997C0.200377 19.8997 6.1791 8.05408 17.7354 0.331966Z" fill="#FCCC00"/>
<path d="M26.9048 62.9966H35.9168V57.6171C39.1987 55.8543 47.5759 53.8873 53.3325 57.6171C53.359 57.7749 53.3325 62.9966 53.3325 62.9966H61.9914V50.7572C61.9914 50.7572 64.8341 53.1762 66.5695 57.6171C66.4535 42.1164 55.8867 25.152 26.9064 25.152L26.9048 62.9966Z" fill="#FCCC00"/>
<path d="M28.9837 22.5088C26.4228 22.6251 16.6815 29.4434 15.6157 33.4739C15.503 33.9025 15.6157 46.3563 15.6157 46.5257C15.5958 48.3217 12.8791 49.0809 11.4221 48.4014C10.179 47.8216 9.29718 46.4543 9.3668 43.7628H5.60254C5.60254 48.5127 7.79048 52.5366 12.8211 52.7077C17.013 52.8506 20.28 52.2359 22.9917 48.9547C24.1769 47.5209 25.6106 47.1487 26.9002 46.9394C26.9002 46.9062 26.9002 53.864 26.9002 53.864C38.6405 51.0796 45.148 41.4851 45.443 29.8853C41.4384 25.0507 31.9407 22.3758 28.9837 22.5088Z" fill="#FEE74E"/>
<path d="M24.4854 43.2277C25.0202 43.2277 25.4537 42.7933 25.4537 42.2575C25.4537 41.7216 25.0202 41.2872 24.4854 41.2872C23.9506 41.2872 23.5171 41.7216 23.5171 42.2575C23.5171 42.7933 23.9506 43.2277 24.4854 43.2277Z" fill="#FCCC00"/>
<path d="M11.9424 28.5046C12.4772 28.5046 12.9107 28.0702 12.9107 27.5343C12.9107 26.9985 12.4772 26.5641 11.9424 26.5641C11.4076 26.5641 10.9741 26.9985 10.9741 27.5343C10.9741 28.0702 11.4076 28.5046 11.9424 28.5046Z" fill="#FEE74E"/>
<path d="M99.1024 26.2956L96.1502 22.0225H92.8917V26.2956H89.3489V10.9564H95.9752C97.3311 10.9564 98.5047 11.1829 99.4961 11.6357C100.502 12.0886 101.275 12.7314 101.814 13.5641C102.354 14.3968 102.623 15.3829 102.623 16.5223C102.623 17.6618 102.346 18.6479 101.792 19.4806C101.253 20.2987 100.48 20.9269 99.4742 21.3651L102.908 26.2956H99.1024ZM99.0368 16.5223C99.0368 15.6604 98.7598 15.003 98.2058 14.5502C97.6518 14.0827 96.8427 13.8489 95.7784 13.8489H92.8917V19.1957H95.7784C96.8427 19.1957 97.6518 18.962 98.2058 18.4945C98.7598 18.027 99.0368 17.3696 99.0368 16.5223Z" fill="white"/>
<path d="M116.715 20.4448C116.715 20.4886 116.693 20.7954 116.649 21.3651H107.748C107.909 22.0956 108.288 22.6726 108.885 23.0962C109.483 23.5199 110.227 23.7317 111.116 23.7317C111.728 23.7317 112.268 23.6441 112.734 23.4688C113.216 23.2789 113.66 22.9867 114.068 22.5922L115.884 24.5644C114.776 25.8354 113.157 26.4709 111.029 26.4709C109.702 26.4709 108.528 26.2152 107.508 25.7039C106.487 25.178 105.7 24.4549 105.146 23.5345C104.592 22.6142 104.315 21.5696 104.315 20.4009C104.315 19.2469 104.585 18.2096 105.124 17.2893C105.678 16.3543 106.429 15.6312 107.377 15.1199C108.339 14.594 109.41 14.331 110.591 14.331C111.743 14.331 112.785 14.5794 113.719 15.0761C114.652 15.5728 115.381 16.2886 115.905 17.2236C116.445 18.1439 116.715 19.2176 116.715 20.4448ZM110.613 16.9168C109.84 16.9168 109.192 17.1359 108.667 17.5742C108.142 18.0124 107.821 18.6114 107.705 19.371H113.5C113.383 18.626 113.062 18.0343 112.538 17.5961C112.013 17.1432 111.371 16.9168 110.613 16.9168Z" fill="white"/>
<path d="M130.45 14.5063L125.486 26.2956H121.965L117.023 14.5063H120.544L123.802 22.5265L127.17 14.5063H130.45Z" fill="white"/>
<path d="M143.047 20.4448C143.047 20.4886 143.025 20.7954 142.981 21.3651H134.081C134.241 22.0956 134.62 22.6726 135.218 23.0962C135.816 23.5199 136.559 23.7317 137.448 23.7317C138.061 23.7317 138.6 23.6441 139.067 23.4688C139.548 23.2789 139.992 22.9867 140.401 22.5922L142.216 24.5644C141.108 25.8354 139.489 26.4709 137.361 26.4709C136.034 26.4709 134.861 26.2152 133.84 25.7039C132.819 25.178 132.032 24.4549 131.478 23.5345C130.924 22.6142 130.647 21.5696 130.647 20.4009C130.647 19.2469 130.917 18.2096 131.456 17.2893C132.01 16.3543 132.761 15.6312 133.709 15.1199C134.671 14.594 135.743 14.331 136.924 14.331C138.075 14.331 139.118 14.5794 140.051 15.0761C140.984 15.5728 141.713 16.2886 142.238 17.2236C142.777 18.1439 143.047 19.2176 143.047 20.4448ZM136.945 16.9168C136.173 16.9168 135.524 17.1359 134.999 17.5742C134.474 18.0124 134.154 18.6114 134.037 19.371H139.832C139.715 18.626 139.395 18.0343 138.87 17.5961C138.345 17.1432 137.704 16.9168 136.945 16.9168Z" fill="white"/>
<path d="M148.577 16.0622C148.985 15.4924 149.531 15.0615 150.217 14.7693C150.917 14.4771 151.718 14.331 152.622 14.331V17.4865C152.243 17.4573 151.988 17.4427 151.857 17.4427C150.88 17.4427 150.115 17.7202 149.561 18.2754C149.007 18.8159 148.73 19.634 148.73 20.7296V26.2956H145.318V14.5063H148.577V16.0622Z" fill="white"/>
<path d="M158.652 26.4709C157.675 26.4709 156.72 26.354 155.787 26.1202C154.854 25.8719 154.11 25.5651 153.556 25.1999L154.694 22.7456C155.218 23.0816 155.853 23.3592 156.596 23.5783C157.34 23.7829 158.069 23.8851 158.783 23.8851C160.226 23.8851 160.948 23.5272 160.948 22.8114C160.948 22.4754 160.751 22.2343 160.358 22.0882C159.964 21.9422 159.359 21.818 158.542 21.7157C157.58 21.5696 156.786 21.4016 156.159 21.2117C155.532 21.0218 154.985 20.6858 154.519 20.2037C154.067 19.7216 153.841 19.035 153.841 18.1439C153.841 17.3989 154.052 16.7415 154.475 16.1717C154.912 15.5874 155.539 15.1345 156.356 14.8131C157.187 14.4917 158.163 14.331 159.286 14.331C160.117 14.331 160.941 14.426 161.757 14.6159C162.588 14.7912 163.273 15.0396 163.813 15.3609L162.676 17.7933C161.641 17.2089 160.511 16.9168 159.286 16.9168C158.557 16.9168 158.01 17.019 157.646 17.2236C157.281 17.4281 157.099 17.691 157.099 18.0124C157.099 18.3776 157.296 18.6333 157.69 18.7794C158.083 18.9255 158.71 19.0642 159.57 19.1957C160.532 19.3564 161.32 19.5317 161.932 19.7216C162.544 19.8969 163.077 20.2256 163.529 20.7077C163.98 21.1898 164.206 21.8618 164.206 22.7237C164.206 23.4542 163.988 24.1042 163.55 24.674C163.113 25.2437 162.472 25.6893 161.626 26.0107C160.795 26.3175 159.804 26.4709 158.652 26.4709Z" fill="white"/>
<path d="M177.836 20.4448C177.836 20.4886 177.814 20.7954 177.771 21.3651H168.87C169.03 22.0956 169.409 22.6726 170.007 23.0962C170.605 23.5199 171.348 23.7317 172.238 23.7317C172.85 23.7317 173.39 23.6441 173.856 23.4688C174.337 23.2789 174.782 22.9867 175.19 22.5922L177.005 24.5644C175.897 25.8354 174.279 26.4709 172.15 26.4709C170.824 26.4709 169.65 26.2152 168.629 25.7039C167.609 25.178 166.822 24.4549 166.268 23.5345C165.714 22.6142 165.437 21.5696 165.437 20.4009C165.437 19.2469 165.706 18.2096 166.246 17.2893C166.8 16.3543 167.551 15.6312 168.498 15.1199C169.46 14.594 170.532 14.331 171.713 14.331C172.865 14.331 173.907 14.5794 174.84 15.0761C175.773 15.5728 176.502 16.2886 177.027 17.2236C177.566 18.1439 177.836 19.2176 177.836 20.4448ZM171.735 16.9168C170.962 16.9168 170.313 17.1359 169.788 17.5742C169.264 18.0124 168.943 18.6114 168.826 19.371H174.621C174.505 18.626 174.184 18.0343 173.659 17.5961C173.134 17.1432 172.493 16.9168 171.735 16.9168Z" fill="white"/>
<path d="M96.675 51.2107C95.115 51.2107 93.7008 50.8747 92.4325 50.2027C91.1786 49.5161 90.1873 48.5738 89.4583 47.3759C88.7439 46.1634 88.3867 44.7975 88.3867 43.2782C88.3867 41.7589 88.7439 40.4002 89.4583 39.2023C90.1873 37.9898 91.1786 37.0476 92.4325 36.3756C93.7008 35.6889 95.1223 35.3456 96.6969 35.3456C98.0236 35.3456 99.2191 35.5794 100.283 36.0469C101.362 36.5143 102.266 37.1863 102.995 38.0629L100.721 40.1665C99.6856 38.9686 98.4026 38.3696 96.8718 38.3696C95.9242 38.3696 95.0786 38.5815 94.335 39.0051C93.5915 39.4142 93.0083 39.9912 92.5855 40.7362C92.1773 41.4813 91.9732 42.3286 91.9732 43.2782C91.9732 44.2277 92.1773 45.075 92.5855 45.8201C93.0083 46.5651 93.5915 47.1495 94.335 47.5731C95.0786 47.9822 95.9242 48.1867 96.8718 48.1867C98.4026 48.1867 99.6856 47.5804 100.721 46.3679L102.995 48.4716C102.266 49.3627 101.362 50.042 100.283 50.5095C99.2045 50.9769 98.0017 51.2107 96.675 51.2107Z" fill="white"/>
<path d="M110.34 51.123C109.1 51.123 107.985 50.8674 106.994 50.3561C106.017 49.8302 105.251 49.107 104.697 48.1867C104.143 47.2663 103.866 46.2218 103.866 45.0531C103.866 43.8844 104.143 42.8399 104.697 41.9196C105.251 40.9992 106.017 40.2834 106.994 39.7721C107.985 39.2462 109.1 38.9832 110.34 38.9832C111.579 38.9832 112.687 39.2462 113.664 39.7721C114.64 40.2834 115.406 40.9992 115.96 41.9196C116.514 42.8399 116.791 43.8844 116.791 45.0531C116.791 46.2218 116.514 47.2663 115.96 48.1867C115.406 49.107 114.64 49.8302 113.664 50.3561C112.687 50.8674 111.579 51.123 110.34 51.123ZM110.34 48.3182C111.214 48.3182 111.929 48.026 112.483 47.4416C113.051 46.8427 113.336 46.0465 113.336 45.0531C113.336 44.0597 113.051 43.2709 112.483 42.6865C111.929 42.0876 111.214 41.7881 110.34 41.7881C109.465 41.7881 108.743 42.0876 108.175 42.6865C107.606 43.2709 107.322 44.0597 107.322 45.0531C107.322 46.0465 107.606 46.8427 108.175 47.4416C108.743 48.026 109.465 48.3182 110.34 48.3182Z" fill="white"/>
<path d="M126.222 38.9832C127.68 38.9832 128.854 39.4215 129.743 40.298C130.647 41.1745 131.099 42.4747 131.099 44.1985V50.9477H127.688V44.7244C127.688 43.7895 127.483 43.0956 127.075 42.6427C126.667 42.1752 126.077 41.9415 125.304 41.9415C124.444 41.9415 123.758 42.2117 123.248 42.7523C122.738 43.2782 122.483 44.067 122.483 45.1189V50.9477H119.071V39.1585H122.33V40.539C122.782 40.0423 123.343 39.6625 124.014 39.3996C124.684 39.122 125.42 38.9832 126.222 38.9832Z" fill="white"/>
<path d="M141.78 50.378C141.445 50.6263 141.029 50.8163 140.533 50.9477C140.052 51.0646 139.542 51.123 139.003 51.123C137.603 51.123 136.517 50.7651 135.744 50.0493C134.986 49.3335 134.607 48.2816 134.607 46.8938V42.051H132.792V39.4215H134.607V36.5509H138.019V39.4215H140.949V42.051H138.019V46.85C138.019 47.3467 138.142 47.7338 138.39 48.0114C138.653 48.2743 139.017 48.4058 139.484 48.4058C140.023 48.4058 140.482 48.2597 140.861 47.9676L141.78 50.378Z" fill="white"/>
<path d="M148.441 38.9832C150.263 38.9832 151.663 39.4215 152.639 40.298C153.616 41.1599 154.105 42.4674 154.105 44.2204V50.9477H150.912V49.4796C150.27 50.5752 149.075 51.123 147.325 51.123C146.421 51.123 145.634 50.9696 144.963 50.6629C144.307 50.3561 143.804 49.9324 143.454 49.3919C143.105 48.8514 142.93 48.2378 142.93 47.5512C142.93 46.4556 143.338 45.5936 144.154 44.9655C144.985 44.3373 146.261 44.0232 147.981 44.0232H150.693C150.693 43.2782 150.467 42.7084 150.015 42.314C149.563 41.9049 148.885 41.7004 147.981 41.7004C147.354 41.7004 146.735 41.8027 146.122 42.0072C145.525 42.1971 145.014 42.4601 144.592 42.7961L143.367 40.4076C144.008 39.9547 144.774 39.6041 145.663 39.3557C146.567 39.1074 147.493 38.9832 148.441 38.9832ZM148.178 48.8222C148.761 48.8222 149.279 48.6907 149.731 48.4277C150.183 48.1502 150.504 47.7484 150.693 47.2225V46.0173H148.353C146.953 46.0173 146.254 46.4775 146.254 47.3978C146.254 47.8361 146.421 48.1867 146.757 48.4496C147.107 48.698 147.58 48.8222 148.178 48.8222Z" fill="white"/>
<path d="M163.006 51.123C161.752 51.123 160.623 50.8674 159.617 50.3561C158.625 49.8302 157.845 49.107 157.277 48.1867C156.723 47.2663 156.446 46.2218 156.446 45.0531C156.446 43.8844 156.723 42.8399 157.277 41.9196C157.845 40.9992 158.625 40.2834 159.617 39.7721C160.623 39.2462 161.752 38.9832 163.006 38.9832C164.245 38.9832 165.324 39.2462 166.243 39.7721C167.176 40.2834 167.854 41.0211 168.277 41.9853L165.63 43.4096C165.018 42.3286 164.136 41.7881 162.984 41.7881C162.095 41.7881 161.359 42.0802 160.776 42.6646C160.192 43.2489 159.901 44.0451 159.901 45.0531C159.901 46.0611 160.192 46.8573 160.776 47.4416C161.359 48.026 162.095 48.3182 162.984 48.3182C164.151 48.3182 165.033 47.7776 165.63 46.6966L168.277 48.1429C167.854 49.0778 167.176 49.8083 166.243 50.3342C165.324 50.8601 164.245 51.123 163.006 51.123Z" fill="white"/>
<path d="M178 50.378C177.665 50.6263 177.249 50.8163 176.754 50.9477C176.273 51.0646 175.762 51.123 175.223 51.123C173.823 51.123 172.737 50.7651 171.964 50.0493C171.206 49.3335 170.827 48.2816 170.827 46.8938V42.051H169.012V39.4215H170.827V36.5509H174.239V39.4215H177.169V42.051H174.239V46.85C174.239 47.3467 174.363 47.7338 174.611 48.0114C174.873 48.2743 175.237 48.4058 175.704 48.4058C176.243 48.4058 176.703 48.2597 177.082 47.9676L178 50.378Z" fill="white"/>
</svg>
