<svg width="178" height="63" viewBox="0 0 178 63" fill="none" xmlns="http://www.w3.org/2000/svg">
<path d="M30.1005 62.8729H42.7326V53.6476C47.3306 51.1821 53.7469 49.6368 61.0831 53.6476C61.1826 53.7006 61.0831 62.8729 61.0831 62.8729H74.3119V40.0219C74.3119 40.0219 77.3286 43.1324 79.2414 49.9568C80.1531 21.6293 62.2732 -3.49314 17.7469 0.399917L30.1005 62.8729Z" fill="#FEE74E"/>
<path d="M17.7354 0.331943C20.0693 0.277659 22.4036 0.419644 24.7136 0.756399C34.3903 2.14251 43.4106 6.6706 48.4329 11.6994C46.1986 21.3375 39.958 37.4155 28.1182 43.7392C27.4552 37.1452 26.1093 33.1576 26.1093 33.1576C22.6417 33.1411 18.9918 32.8609 15.8326 33.3748C14.2082 33.6401 12.7181 34.116 11.4501 34.9467C7.72226 37.3906 5.88737 40.9073 5.59731 43.7342C5.54095 48.4198 7.9278 52.8948 14.0275 52.6146C17.2713 52.4654 19.867 51.6745 20.9444 50.6383C20.9444 52.0476 21.0521 55.6654 20.9444 55.7914C18.836 58.2403 2.93696 61.3475 0.200377 47.9854C-0.250472 45.7802 0.200377 19.8602 0.200377 19.8602C0.200377 19.8602 6.1791 8.03847 17.7354 0.331943Z" fill="#FCCC00"/>
<path d="M26.9048 62.8695H35.9168V57.5008C39.1987 55.7416 47.5759 53.7785 53.3325 57.5008C53.359 57.6583 53.3325 62.8695 53.3325 62.8695H61.9914V50.6548C61.9914 50.6548 64.8341 53.0689 66.5695 57.5008C66.4535 42.0314 55.8867 25.1012 26.9064 25.1012L26.9048 62.8695Z" fill="#FCCC00"/>
<path d="M28.9835 22.4633C26.4226 22.5794 16.6813 29.384 15.6155 33.4063C15.5028 33.8341 15.6155 46.2627 15.6155 46.4318C15.5956 48.2242 12.8789 48.9819 11.422 48.3038C10.1788 47.7251 9.297 46.3605 9.36662 43.6745H5.60236C5.60236 48.4148 7.7903 52.4306 12.8209 52.6014C17.0128 52.744 20.2798 52.1305 22.9915 48.8559C24.1767 47.425 25.6104 47.0536 26.9 46.8447C26.9 46.8115 26.9 53.7554 26.9 53.7554C38.6403 50.9765 45.1478 41.4014 45.4428 29.825C41.4382 25.0001 31.9406 22.3307 28.9835 22.4633Z" fill="#FEE74E"/>
<path d="M24.4852 43.1406C25.0199 43.1406 25.4535 42.707 25.4535 42.1723C25.4535 41.6375 25.0199 41.204 24.4852 41.204C23.9504 41.204 23.5169 41.6375 23.5169 42.1723C23.5169 42.707 23.9504 43.1406 24.4852 43.1406Z" fill="#FCCC00"/>
<path d="M11.9425 28.4471C12.4773 28.4471 12.9108 28.0136 12.9108 27.4788C12.9108 26.944 12.4773 26.5105 11.9425 26.5105C11.4078 26.5105 10.9743 26.944 10.9743 27.4788C10.9743 28.0136 11.4078 28.4471 11.9425 28.4471Z" fill="#FEE74E"/>
<path d="M99.1023 26.2425L96.15 21.9781H92.8915V26.2425H89.3488V10.9343H95.975C97.3309 10.9343 98.5045 11.1603 99.4959 11.6123C100.502 12.0642 101.275 12.7057 101.814 13.5367C102.353 14.3677 102.623 15.3518 102.623 16.489C102.623 17.6262 102.346 18.6103 101.792 19.4413C101.253 20.2577 100.48 20.8846 99.4741 21.322L102.907 26.2425H99.1023ZM99.0367 16.489C99.0367 15.6288 98.7597 14.9728 98.2057 14.5208C97.6517 14.0543 96.8425 13.821 95.7782 13.821H92.8915V19.157H95.7782C96.8425 19.157 97.6517 18.9237 98.2057 18.4572C98.7597 17.9907 99.0367 17.3346 99.0367 16.489Z" fill="black"/>
<path d="M116.714 20.4035C116.714 20.4473 116.693 20.7534 116.649 21.322H107.748C107.909 22.051 108.288 22.6269 108.885 23.0497C109.483 23.4725 110.227 23.6839 111.116 23.6839C111.728 23.6839 112.268 23.5964 112.734 23.4214C113.215 23.2319 113.66 22.9403 114.068 22.5467L115.883 24.5149C114.775 25.7833 113.157 26.4175 111.028 26.4175C109.702 26.4175 108.528 26.1623 107.508 25.652C106.487 25.1272 105.7 24.4055 105.146 23.487C104.592 22.5685 104.315 21.5261 104.315 20.3598C104.315 19.208 104.584 18.1729 105.124 17.2544C105.678 16.3213 106.429 15.5997 107.376 15.0894C108.339 14.5646 109.41 14.3021 110.591 14.3021C111.743 14.3021 112.785 14.55 113.718 15.0457C114.651 15.5414 115.38 16.2557 115.905 17.1888C116.445 18.1073 116.714 19.1789 116.714 20.4035ZM110.613 16.8826C109.84 16.8826 109.192 17.1013 108.667 17.5387C108.142 17.9761 107.821 18.5738 107.704 19.332H113.5C113.383 18.5884 113.062 17.998 112.537 17.5606C112.013 17.1086 111.371 16.8826 110.613 16.8826Z" fill="black"/>
<path d="M130.45 14.4771L125.486 26.2425H121.965L117.023 14.4771H120.543L123.802 22.4811L127.17 14.4771H130.45Z" fill="black"/>
<path d="M143.047 20.4035C143.047 20.4473 143.025 20.7534 142.981 21.322H134.08C134.241 22.051 134.62 22.6269 135.218 23.0497C135.815 23.4725 136.559 23.6839 137.448 23.6839C138.061 23.6839 138.6 23.5964 139.067 23.4214C139.548 23.2319 139.992 22.9403 140.401 22.5467L142.216 24.5149C141.108 25.7833 139.489 26.4175 137.361 26.4175C136.034 26.4175 134.86 26.1623 133.84 25.652C132.819 25.1272 132.032 24.4055 131.478 23.487C130.924 22.5685 130.647 21.5261 130.647 20.3598C130.647 19.208 130.917 18.1729 131.456 17.2544C132.01 16.3213 132.761 15.5997 133.709 15.0894C134.671 14.5646 135.742 14.3021 136.923 14.3021C138.075 14.3021 139.118 14.55 140.051 15.0457C140.984 15.5414 141.713 16.2557 142.238 17.1888C142.777 18.1073 143.047 19.1789 143.047 20.4035ZM136.945 16.8826C136.173 16.8826 135.524 17.1013 134.999 17.5387C134.474 17.9761 134.153 18.5738 134.037 19.332H139.832C139.715 18.5884 139.395 17.998 138.87 17.5606C138.345 17.1086 137.703 16.8826 136.945 16.8826Z" fill="black"/>
<path d="M148.576 16.0298C148.985 15.4612 149.531 15.0311 150.217 14.7395C150.916 14.4479 151.718 14.3021 152.622 14.3021V17.4512C152.243 17.4221 151.988 17.4075 151.857 17.4075C150.88 17.4075 150.115 17.6845 149.561 18.2385C149.006 18.7779 148.729 19.5944 148.729 20.6878V26.2425H145.318V14.4771H148.576V16.0298Z" fill="black"/>
<path d="M158.652 26.4175C157.675 26.4175 156.72 26.3008 155.787 26.0676C154.854 25.8197 154.11 25.5135 153.556 25.1491L154.693 22.6998C155.218 23.0351 155.852 23.3121 156.596 23.5308C157.339 23.7349 158.068 23.8369 158.783 23.8369C160.226 23.8369 160.948 23.4797 160.948 22.7654C160.948 22.43 160.751 22.1895 160.357 22.0437C159.964 21.8979 159.359 21.774 158.542 21.6719C157.58 21.5261 156.785 21.3585 156.159 21.1689C155.532 20.9794 154.985 20.6441 154.518 20.163C154.066 19.6819 153.84 18.9966 153.84 18.1073C153.84 17.3638 154.052 16.7077 154.475 16.1391C154.912 15.5559 155.539 15.104 156.355 14.7832C157.186 14.4625 158.163 14.3021 159.286 14.3021C160.117 14.3021 160.941 14.3969 161.757 14.5864C162.588 14.7614 163.273 15.0092 163.813 15.33L162.675 17.7574C161.64 17.1742 160.51 16.8826 159.286 16.8826C158.557 16.8826 158.01 16.9847 157.646 17.1888C157.281 17.3929 157.099 17.6553 157.099 17.9761C157.099 18.3406 157.296 18.5957 157.689 18.7415C158.083 18.8873 158.71 19.0258 159.57 19.157C160.532 19.3174 161.32 19.4923 161.932 19.6819C162.544 19.8568 163.076 20.1848 163.528 20.666C163.98 21.1471 164.206 21.8177 164.206 22.6779C164.206 23.4068 163.988 24.0556 163.55 24.6242C163.113 25.1928 162.471 25.6375 161.626 25.9582C160.795 26.2644 159.803 26.4175 158.652 26.4175Z" fill="black"/>
<path d="M177.836 20.4035C177.836 20.4473 177.814 20.7534 177.77 21.322H168.87C169.03 22.051 169.409 22.6269 170.007 23.0497C170.605 23.4725 171.348 23.6839 172.238 23.6839C172.85 23.6839 173.389 23.5964 173.856 23.4214C174.337 23.2319 174.782 22.9403 175.19 22.5467L177.005 24.5149C175.897 25.7833 174.279 26.4175 172.15 26.4175C170.823 26.4175 169.65 26.1623 168.629 25.652C167.609 25.1272 166.821 24.4055 166.267 23.487C165.713 22.5685 165.436 21.5261 165.436 20.3598C165.436 19.208 165.706 18.1729 166.246 17.2544C166.8 16.3213 167.55 15.5997 168.498 15.0894C169.46 14.5646 170.532 14.3021 171.713 14.3021C172.865 14.3021 173.907 14.55 174.84 15.0457C175.773 15.5414 176.502 16.2557 177.027 17.1888C177.566 18.1073 177.836 19.1789 177.836 20.4035ZM171.735 16.8826C170.962 16.8826 170.313 17.1013 169.788 17.5387C169.263 17.9761 168.943 18.5738 168.826 19.332H174.621C174.505 18.5884 174.184 17.998 173.659 17.5606C173.134 17.1086 172.493 16.8826 171.735 16.8826Z" fill="black"/>
<path d="M96.6749 51.1074C95.1149 51.1074 93.7007 50.772 92.4323 50.1014C91.1785 49.4162 90.1871 48.4758 89.4581 47.2803C88.7438 46.0702 88.3866 44.7071 88.3866 43.1908C88.3866 41.6746 88.7438 40.3187 89.4581 39.1232C90.1871 37.9132 91.1785 36.9728 92.4323 36.3022C93.7007 35.6169 95.1222 35.2743 96.6967 35.2743C98.0234 35.2743 99.2189 35.5076 100.283 35.9741C101.362 36.4407 102.266 37.1113 102.995 37.9861L100.721 40.0855C99.6855 38.89 98.4025 38.2922 96.8717 38.2922C95.924 38.2922 95.0784 38.5036 94.3349 38.9264C93.5913 39.3346 93.0082 39.9105 92.5854 40.6541C92.1772 41.3976 91.9731 42.2432 91.9731 43.1908C91.9731 44.1385 92.1772 44.9841 92.5854 45.7276C93.0082 46.4712 93.5913 47.0543 94.3349 47.4771C95.0784 47.8854 95.924 48.0895 96.8717 48.0895C98.4025 48.0895 99.6855 47.4844 100.721 46.2744L102.995 48.3738C102.266 49.2631 101.362 49.941 100.283 50.4076C99.2043 50.8741 98.0016 51.1074 96.6749 51.1074Z" fill="black"/>
<path d="M110.339 51.0199C109.1 51.0199 107.985 50.7648 106.994 50.2545C106.017 49.7296 105.251 49.008 104.697 48.0895C104.143 47.171 103.866 46.1286 103.866 44.9622C103.866 43.7959 104.143 42.7535 104.697 41.835C105.251 40.9165 106.017 40.2021 106.994 39.6918C107.985 39.167 109.1 38.9046 110.339 38.9046C111.579 38.9046 112.687 39.167 113.664 39.6918C114.64 40.2021 115.406 40.9165 115.96 41.835C116.514 42.7535 116.791 43.7959 116.791 44.9622C116.791 46.1286 116.514 47.171 115.96 48.0895C115.406 49.008 114.64 49.7296 113.664 50.2545C112.687 50.7648 111.579 51.0199 110.339 51.0199ZM110.339 48.2207C111.214 48.2207 111.929 47.9291 112.483 47.3459C113.051 46.7482 113.335 45.9536 113.335 44.9622C113.335 43.9708 113.051 43.1836 112.483 42.6004C111.929 42.0026 111.214 41.7038 110.339 41.7038C109.465 41.7038 108.743 42.0026 108.174 42.6004C107.606 43.1836 107.322 43.9708 107.322 44.9622C107.322 45.9536 107.606 46.7482 108.174 47.3459C108.743 47.9291 109.465 48.2207 110.339 48.2207Z" fill="black"/>
<path d="M126.222 38.9046C127.68 38.9046 128.854 39.3419 129.743 40.2167C130.647 41.0914 131.099 42.389 131.099 44.1093V50.8449H127.687V44.6342C127.687 43.7011 127.483 43.0086 127.075 42.5567C126.667 42.0901 126.076 41.8568 125.304 41.8568C124.444 41.8568 123.758 42.1266 123.248 42.666C122.738 43.1908 122.483 43.9781 122.483 45.0278V50.8449H119.071V39.0795H122.33V40.4572C122.782 39.9616 123.343 39.5825 124.013 39.3201C124.684 39.0431 125.42 38.9046 126.222 38.9046Z" fill="black"/>
<path d="M141.78 50.2764C141.444 50.5242 141.029 50.7137 140.533 50.8449C140.052 50.9616 139.542 51.0199 139.002 51.0199C137.603 51.0199 136.517 50.6627 135.744 49.9483C134.986 49.2339 134.607 48.1842 134.607 46.7992V41.9662H132.792V39.3419H134.607V36.4771H138.018V39.3419H140.949V41.9662H138.018V46.7555C138.018 47.2512 138.142 47.6375 138.39 47.9145C138.653 48.1769 139.017 48.3082 139.484 48.3082C140.023 48.3082 140.482 48.1624 140.861 47.8708L141.78 50.2764Z" fill="black"/>
<path d="M148.44 38.9046C150.263 38.9046 151.662 39.3419 152.639 40.2167C153.616 41.0769 154.104 42.3817 154.104 44.1312V50.8449H150.912V49.3797C150.27 50.4732 149.075 51.0199 147.325 51.0199C146.421 51.0199 145.634 50.8668 144.963 50.5606C144.307 50.2545 143.804 49.8317 143.454 49.2923C143.104 48.7528 142.929 48.1405 142.929 47.4553C142.929 46.3618 143.338 45.5017 144.154 44.8747C144.985 44.2478 146.261 43.9344 147.981 43.9344H150.693C150.693 43.1908 150.467 42.6223 150.015 42.2286C149.563 41.8204 148.885 41.6163 147.981 41.6163C147.354 41.6163 146.735 41.7183 146.122 41.9225C145.525 42.112 145.014 42.3744 144.591 42.7097L143.367 40.326C144.008 39.8741 144.774 39.5242 145.663 39.2763C146.567 39.0285 147.493 38.9046 148.44 38.9046ZM148.178 48.7237C148.761 48.7237 149.279 48.5924 149.731 48.33C150.183 48.053 150.503 47.6521 150.693 47.1272V45.9245H148.353C146.953 45.9245 146.254 46.3837 146.254 47.3022C146.254 47.7396 146.421 48.0895 146.757 48.3519C147.106 48.5997 147.58 48.7237 148.178 48.7237Z" fill="black"/>
<path d="M163.006 51.0199C161.752 51.0199 160.622 50.7648 159.616 50.2545C158.625 49.7296 157.845 49.008 157.276 48.0895C156.722 47.171 156.445 46.1286 156.445 44.9622C156.445 43.7959 156.722 42.7535 157.276 41.835C157.845 40.9165 158.625 40.2021 159.616 39.6918C160.622 39.167 161.752 38.9046 163.006 38.9046C164.245 38.9046 165.324 39.167 166.243 39.6918C167.176 40.2021 167.854 40.9384 168.276 41.9006L165.63 43.3221C165.018 42.2432 164.136 41.7038 162.984 41.7038C162.095 41.7038 161.359 41.9954 160.775 42.5785C160.192 43.1617 159.901 43.9563 159.901 44.9622C159.901 45.9682 160.192 46.7628 160.775 47.3459C161.359 47.9291 162.095 48.2207 162.984 48.2207C164.151 48.2207 165.033 47.6812 165.63 46.6024L168.276 48.0457C167.854 48.9788 167.176 49.7078 166.243 50.2326C165.324 50.7575 164.245 51.0199 163.006 51.0199Z" fill="black"/>
<path d="M178 50.2764C177.665 50.5242 177.249 50.7137 176.754 50.8449C176.272 50.9616 175.762 51.0199 175.223 51.0199C173.823 51.0199 172.737 50.6627 171.964 49.9483C171.206 49.2339 170.827 48.1842 170.827 46.7992V41.9662H169.012V39.3419H170.827V36.4771H174.239V39.3419H177.169V41.9662H174.239V46.7555C174.239 47.2512 174.363 47.6375 174.61 47.9145C174.873 48.1769 175.237 48.3082 175.704 48.3082C176.243 48.3082 176.703 48.1624 177.082 47.8708L178 50.2764Z" fill="black"/>
</svg>
