<svg width="267" height="350" viewBox="0 0 267 350" fill="none" xmlns="http://www.w3.org/2000/svg">
<path d="M133.105 171.173C172.019 171.173 203.568 132.855 203.568 85.587C203.568 38.318 193.21 0 133.105 0C72.9999 0 62.6399 38.318 62.6399 85.587C62.6399 132.855 94.1889 171.173 133.105 171.173Z" fill="white"/>
<path d="M0.0138564 301.853C0.00185641 298.971 -0.0101436 301.041 0.0138564 301.853V301.853Z" fill="white"/>
<path d="M266.19 304.104C266.228 303.315 266.203 298.63 266.19 304.104V304.104Z" fill="white"/>
<path d="M266.04 298.397C264.735 216.055 253.981 192.592 171.688 177.74C171.688 177.74 160.104 192.501 133.104 192.501C106.104 192.501 94.5178 177.74 94.5178 177.74C13.1228 192.43 1.71482 215.545 0.214817 295.722C0.091817 302.269 0.0348174 302.613 0.0128174 301.853C0.0178174 303.277 0.0238152 305.911 0.0238152 310.504C0.0238152 310.504 19.6158 350 133.104 350C246.59 350 266.184 310.504 266.184 310.504C266.184 307.553 266.186 305.501 266.189 304.105C266.167 304.575 266.123 303.664 266.04 298.397Z" fill="white"/>
</svg>
