<svg width="22" height="33" viewBox="0 0 22 33" fill="none" xmlns="http://www.w3.org/2000/svg">
<path d="M11.0007 0.632568C5.11917 0.632568 0.333984 5.41776 0.333984 11.2993C0.333984 13.0649 0.775422 14.8155 1.61461 16.3683L10.4174 32.2888C10.5345 32.5011 10.7579 32.6326 11.0007 32.6326C11.2435 32.6326 11.4668 32.5011 11.584 32.2888L20.39 16.363C21.2259 14.8155 21.6674 13.0648 21.6674 11.2992C21.6674 5.41776 16.8822 0.632568 11.0007 0.632568ZM11.0007 16.6326C8.05992 16.6326 5.66736 14.24 5.66736 11.2993C5.66736 8.35851 8.05992 5.96594 11.0007 5.96594C13.9414 5.96594 16.334 8.35851 16.334 11.2993C16.334 14.24 13.9414 16.6326 11.0007 16.6326Z" fill="white"/>
</svg>
