<svg width="32" height="32" viewBox="0 0 32 32" fill="none" xmlns="http://www.w3.org/2000/svg">
<path d="M13.1875 16.9375H18.8125V18.8125H13.1875V16.9375Z" fill="white"/>
<path d="M25.9612 18.8125H20.6875V19.75C20.6875 20.2681 20.2681 20.6875 19.75 20.6875H12.25C11.7319 20.6875 11.3125 20.2681 11.3125 19.75V18.8125H6.03882C4.82666 18.8125 3.75464 18.0398 3.37085 16.8899L0 6.77563V27.25C0 28.8008 1.26172 30.0625 2.8125 30.0625H29.1875C30.7383 30.0625 32 28.8008 32 27.25V6.77637L28.6289 16.8899C28.2454 18.0398 27.1733 18.8125 25.9612 18.8125Z" fill="white"/>
<path d="M19.7502 1.9375H12.2502C10.6995 1.9375 9.43774 3.19922 9.43774 4.75V5.6875H1.61328L5.14917 16.2966C5.27734 16.6802 5.63525 16.9375 6.03906 16.9375H11.3127V16C11.3127 15.4819 11.7322 15.0625 12.2502 15.0625H19.7502C20.2683 15.0625 20.6877 15.4819 20.6877 16V16.9375H25.9614C26.3652 16.9375 26.7231 16.6802 26.8513 16.2966L30.3875 5.6875H22.5627V4.75C22.5627 3.19922 21.301 1.9375 19.7502 1.9375ZM11.3127 5.6875V4.75C11.3127 4.23267 11.7329 3.8125 12.2502 3.8125H19.7502C20.2676 3.8125 20.6877 4.23267 20.6877 4.75V5.6875H11.3127Z" fill="white"/>
</svg>
