<svg width="14" height="14" viewBox="0 0 14 14" fill="none" xmlns="http://www.w3.org/2000/svg">
<path fill-rule="evenodd" clip-rule="evenodd" d="M8.33347 3.25876C6.93189 1.85719 4.65958 1.85719 3.25901 3.25876C1.85744 4.66033 1.85744 6.93264 3.25901 8.33422C4.65958 9.73479 6.93189 9.73479 8.33347 8.33422C9.73404 6.93264 9.73404 4.66033 8.33347 3.25876ZM13.5859 13.5866C13.047 14.1255 12.1733 14.1255 11.6345 13.5866L8.78933 10.7405C6.55901 12.0921 3.6229 11.8212 1.69748 9.89474C-0.565828 7.63143 -0.565828 3.96155 1.69748 1.69823C3.9608 -0.566078 7.63068 -0.566078 9.89499 1.69823C11.8204 3.62365 12.0913 6.56076 10.7407 8.78908L13.5859 11.6352C14.1247 12.1731 14.1247 13.0478 13.5859 13.5866Z" fill="white"/>
</svg>
